<?xml version="1.0" ?><svg viewBox="0 0 64 64" xmlns="http://www.w3.org/2000/svg"><defs><style>.cls-1{fill:#b6db38;}.cls-2{fill:#a67c52;}.cls-3{fill:#588189;}.cls-4{fill:#799aa1;}.cls-5{fill:#9ce5f4;}.cls-6{fill:#c4eff8;}.cls-7{fill:#adadad;}.cls-8{fill:#e6e6e6;}.cls-9{fill:#fc9857;}.cls-10{fill:#bc5f22;}.cls-11{fill:#fb7e2d;}.cls-12{fill:#8d471a;}</style></defs><title/><g data-name="Layer 17" id="Layer_17"><path class="cls-1" d="M46.5,19.5h0A5.12,5.12,0,0,1,50.12,18H51v.88a5.12,5.12,0,0,1-1.5,3.62h0A5.12,5.12,0,0,1,45.88,24H45v-.88A5.12,5.12,0,0,1,46.5,19.5Z"/><path class="cls-2" d="M46,29H44V24.9a5.93,5.93,0,0,0-1.76-4.24l-2-1.95,1.42-1.42,1.95,1.95A8,8,0,0,1,46,24.9Z"/><rect class="cls-3" height="8" width="36" x="2" y="2"/><rect class="cls-4" height="8" width="32" x="2" y="2"/><polyline class="cls-5" points="8 2 8 6 32 6 32 2"/><rect class="cls-6" height="4" width="21" x="8" y="2"/><path class="cls-5" d="M6,10v4L2.59,17.41A2,2,0,0,0,2,18.83V59a3,3,0,0,0,3,3H35a3,3,0,0,0,3-3V18.83a2,2,0,0,0-.59-1.42L34,14V10Z"/><path class="cls-6" d="M34,59V18.83a2,2,0,0,0-.59-1.42L30,14V10H6v4L2.59,17.41A2,2,0,0,0,2,18.83V59a3,3,0,0,0,3,3H31A3,3,0,0,0,34,59Z"/><rect class="cls-3" height="28" width="36" x="2" y="24"/><rect class="cls-4" height="28" width="32" x="2" y="24"/><rect class="cls-7" height="20" width="28" x="6" y="28"/><rect class="cls-8" height="20" width="25" x="6" y="28"/><circle class="cls-9" cx="45" cy="45" r="17"/><path class="cls-10" d="M55,45a17,17,0,0,1-34,0Z"/><path class="cls-11" d="M51,45a13,13,0,0,1-26,0Z"/><path class="cls-12" d="M38,58c.34,0,.67,0,1,0V47.41l7.45,7.46a13.6,13.6,0,0,0,1.42-1.42L39.41,45H37V58C37.33,58,37.66,58,38,58Z"/><path class="cls-12" d="M28.13,53.45a13.6,13.6,0,0,0,1.42,1.42l9.16-9.16L38,45H36.59Z"/><path class="cls-10" d="M56.08,40.38A12,12,0,0,0,45,33V31a14,14,0,0,1,12.93,8.62Z"/></g></svg>